<svg width="241" height="19" viewBox="0 0 241 19" fill="none" xmlns="http://www.w3.org/2000/svg">
<path d="M1.66649 6.16835C1.19858 6.24664 0.759189 6.47773 0.446965 6.84374C0.134723 7.20947 -0.0250569 7.67552 0.00320314 8.14652C0.0314632 8.61753 0.245822 9.06113 0.599553 9.3869C0.953301 9.71295 1.41717 9.88985 1.89108 9.91162C1.89108 9.91162 1.89108 9.91162 1.89108 9.91162C5.9657 10.0846 9.9417 10.233 13.823 10.3563C29.6947 10.8314 45.4592 10.8291 61.1807 10.4465C116.389 8.06736 170.673 13.8919 226.265 18.4789C230.196 18.673 234.149 18.8174 238.174 18.9119C238.663 18.9229 239.142 18.7509 239.508 18.4214C239.873 18.0921 240.094 17.6344 240.122 17.1468C240.15 16.6591 239.984 16.1789 239.659 15.8096C239.335 15.4401 238.878 15.2137 238.391 15.1682C238.391 15.1682 238.391 15.1682 238.391 15.1682C234.413 14.7982 230.513 14.3882 226.64 13.9388C172.396 5.84053 116.418 -1.9777 60.9381 0.449425C45.0913 0.835089 29.2721 2.17484 13.4979 4.36507C9.64102 4.90815 5.69816 5.50904 1.66649 6.16835Z" fill="#E7000B"/>
</svg>
